<svg width="44" height="44" viewBox="0 0 44 44" fill="none" xmlns="http://www.w3.org/2000/svg">
<path d="M37.125 8.25H6.875C6.11561 8.25 5.5 8.86561 5.5 9.625V34.375C5.5 35.1344 6.11561 35.75 6.875 35.75H37.125C37.8844 35.75 38.5 35.1344 38.5 34.375V9.625C38.5 8.86561 37.8844 8.25 37.125 8.25Z" stroke="white" stroke-width="2" stroke-linecap="round" stroke-linejoin="round"/>
<path d="M5.5 28.875L14.1527 20.2223C14.2804 20.0946 14.432 19.9933 14.5988 19.9242C14.7656 19.8551 14.9444 19.8195 15.125 19.8195C15.3055 19.8195 15.4843 19.8551 15.6512 19.9242C15.818 19.9933 15.9696 20.0946 16.0972 20.2223L23.7777 27.9027C23.9054 28.0304 24.057 28.1317 24.2238 28.2008C24.3906 28.2699 24.5694 28.3055 24.75 28.3055C24.9305 28.3055 25.1093 28.2699 25.2762 28.2008C25.443 28.1317 25.5946 28.0304 25.7222 27.9027L29.2777 24.3473C29.4054 24.2196 29.557 24.1183 29.7238 24.0492C29.8906 23.9801 30.0694 23.9445 30.25 23.9445C30.4305 23.9445 30.6093 23.9801 30.7762 24.0492C30.943 24.1183 31.0946 24.2196 31.2222 24.3473L38.5 31.625" stroke="white" stroke-width="2" stroke-linecap="round" stroke-linejoin="round"/>
<path d="M26.8125 19.25C27.9516 19.25 28.875 18.3266 28.875 17.1875C28.875 16.0484 27.9516 15.125 26.8125 15.125C25.6734 15.125 24.75 16.0484 24.75 17.1875C24.75 18.3266 25.6734 19.25 26.8125 19.25Z" fill="white"/>
</svg>
